<svg width="38" height="24" viewBox="0 0 38 24" fill="none" role="img" aria-labelledby="pi-golfbon" version="1.1" xmlns="http://www.w3.org/2000/svg"><title id="pi-golfbon">Golfbon</title><g class="cls-5" stroke-width="1.055"><g stroke-width="1.055"><path class="cls-4" d="M2.107.452A2.117 2.117 0 00.001 2.447v13.881h37.981V2.562c0-1.16-.95-2.11-2.11-2.11H2.107z" fill="#00aeea"/><path class="cls-2" d="M37.999 2.741c-3.096 3.912-8.239 7.635-14.61 10.169-9.318 3.727-18.453 3.878-23.376.86v7.752c0 1.16.95 2.11 2.11 2.11H35.89c1.16 0 2.11-.95 2.11-2.11V2.742z" fill="#a9ca49"/></g><path class="cls-3" d="M8.823.448c-.807.23-1.657.53-2.52.9C3.73 2.468 1.714 3.884.782 5.152.717 3.656 1.157 2.06 2.027.45a2.117 2.117 0 00-2.02 2.108v11.215c4.925 3.016 14.056 2.866 23.374-.861 6.372-2.572 11.516-6.298 14.612-10.173v-.181c0-.515-.188-.987-.497-1.354-2.797 3.215-7.175 6.283-12.511 8.425-10.48 4.177-20.81 3.318-23.531-1.903 1.529.336 4.214-.11 7.01-1.341C12.382 4.669 15.066 2.17 14.469.79a1.03 1.03 0 00-.241-.342H8.823zm21.788 0c-2.018 2.814-5.342 5.597-9.505 7.763a20.624 20.624 0 001.902-.783c4.155-1.872 7.617-4.36 9.997-6.98h-2.394z" fill="#fff"/><g stroke-width="1.055"><path class="cls-3" d="M8.099 17.349v-.361l.048.096.048.096.096.192.385.722h.433v-1.299h-.241v1.082l-.048-.096-.048-.096a.852.852 0 01-.096-.216l-.337-.673h-.433v1.323h.241v-.77zM11.466 17.855l.072.265h.265l-.433-1.323h-.361l-.433 1.323h.265l.072-.265zm-.264-.866l.216.673h-.457zM14.232 17.013v-.217h-1.01v.217h.361v1.106h.264v-1.106zM15.748 16.796h.241v1.323h-.241zM18.105 18.119c.265 0 .433-.048.505-.12.072-.072.096-.265.096-.577 0-.265-.024-.457-.096-.529-.072-.072-.216-.12-.457-.12-.265 0-.433.048-.505.12-.072.072-.096.289-.096.601 0 .265.024.433.096.505.072.096.216.12.457.12zm-.265-1.058c.024-.048.12-.072.289-.072.169 0 .265.024.289.072.024.048.048.168.048.385s-.024.361-.048.385c-.024.048-.12.072-.289.072-.169 0-.265-.024-.289-.048-.024-.048-.048-.144-.048-.337 0-.265.024-.409.048-.457zM20.51 17.349v-.361l.048.096.048.096.096.192.385.722h.433v-1.299h-.241v1.082l-.048-.096-.048-.096a.852.852 0 01-.096-.216l-.337-.673h-.433v1.323h.241v-.77zM23.324 17.855h.577l.072.265h.265l-.433-1.323h-.385l-.433 1.323h.265zm.289-.866l.216.673h-.457zM25.994 17.879v-1.083h-.264v1.323h.866v-.24zM28.327 17.903v-.361h.626v-.193h-.626v-.336h.65v-.217h-.89v1.323h.914v-.216zM9.085 20.476v.457h.818v.12c0 .265-.048.457-.144.529-.096.072-.313.12-.625.12-.337 0-.553-.048-.649-.12-.096-.096-.144-.289-.144-.601v-.722c0-.337.048-.529.144-.625.096-.096.313-.144.673-.144.337 0 .529.024.601.072.072.048.12.192.144.385h.625c0-.409-.072-.698-.241-.818-.169-.12-.529-.192-1.106-.192-.433 0-.746.048-.938.12-.192.072-.313.241-.409.457-.072.192-.12.625-.12 1.347 0 .553.096.914.265 1.106.192.168.553.265 1.106.265.601 0 1.01-.072 1.179-.192.168-.144.265-.433.265-.914v-.649H9.086zM12.404 18.937c-.649 0-1.082.096-1.251.289-.168.192-.265.673-.265 1.443 0 .649.096 1.058.265 1.251.169.193.553.289 1.13.289.649 0 1.058-.096 1.227-.289.169-.193.265-.649.265-1.395 0-.673-.096-1.106-.265-1.299-.144-.192-.529-.289-1.106-.289zm.65 2.598c-.072.096-.313.168-.673.168-.409 0-.649-.048-.722-.144-.072-.096-.12-.385-.12-.842 0-.625.024-.986.096-1.106.072-.096.313-.168.722-.168s.625.048.698.144c.073.096.12.409.12.962 0 .553-.048.89-.12.986zM14.329 18.961v3.223h2.116v-.553H14.93v-2.67zM17.504 20.356v-.89h1.515v-.505h-2.141v3.223h.626v-1.323h1.443v-.505zM21.929 21.992c.144-.144.216-.361.216-.698 0-.457-.192-.722-.553-.77.313-.072.481-.313.481-.698 0-.337-.072-.553-.192-.673-.144-.12-.385-.168-.77-.168h-1.587v3.223h1.684c.337-.024.577-.072.722-.216zm-1.804-2.526h.866c.289 0 .433.12.433.385 0 .192-.024.313-.096.361-.072.048-.216.072-.457.072h-.746zm.674 2.213h-.673v-.914h.794c.265 0 .433.024.505.072.072.048.096.168.096.361 0 .193-.024.313-.096.361-.072.048-.192.096-.409.096l-.216.024zM24.046 18.937c-.649 0-1.082.096-1.251.289-.168.192-.265.673-.265 1.443 0 .649.096 1.058.265 1.251.168.192.553.289 1.13.289.649 0 1.058-.096 1.227-.289.168-.192.265-.649.265-1.395 0-.673-.072-1.106-.265-1.299-.144-.192-.505-.289-1.106-.289zm.649 2.598c-.072.096-.313.168-.673.168-.409 0-.625-.048-.722-.144-.072-.096-.12-.385-.12-.842 0-.625.024-.986.096-1.106.072-.096.313-.168.722-.168s.625.048.698.144c.072.096.096.409.096.962.024.553-.024.89-.096.986zM25.97 22.184h.625v-2.718h.024l.096.241.096.241c.096.216.168.385.216.457l.914 1.78h1.034v-3.223h-.625v2.694h-.024l-.12-.265-.12-.265c-.096-.216-.192-.385-.265-.529l-.842-1.636h-1.034v3.223h.024zM29.891 19.538c.072-.024.12-.072.12-.144a.183.183 0 00-.048-.12c-.024-.024-.096-.048-.192-.048-.072 0-.12 0-.168.024v.577h.096v-.241h.072c.072 0 .12.024.12.096 0 .072.024.12.048.144h.096c0-.024-.024-.048-.048-.144 0-.096-.048-.144-.096-.144zm-.12-.048h-.072v-.192h.072c.096 0 .144.048.144.096 0 .072-.072.096-.144.096z" fill="#fff"/><path class="cls-3" d="M29.795 18.985a.534.534 0 00-.529.529c0 .288.241.529.529.529a.514.514 0 00.505-.529.498.498 0 00-.505-.529zm0 .962c-.241 0-.409-.192-.409-.433s.192-.433.409-.433c.241 0 .409.192.409.433.024.241-.168.433-.409.433z"/></g></g></svg>