<svg width="38" height="24" viewBox="0 0 38 24" fill="none" role="img" aria-labelledby="pi-paynl-spraypay-new" version="1.1" xmlns:xlink="http://www.w3.org/1999/xlink" xmlns="http://www.w3.org/2000/svg"><title id="pi-paynl-spraypay-new">Paynl Spraypay New</title><path opacity=".07" d="M35 0H3C1.3 0 0 1.3 0 3v18c0 1.7 1.4 3 3 3h32c1.7 0 3-1.3 3-3V3c0-1.7-1.4-3-3-3z" fill="#000" /><path d="M35 1c1.1 0 2 .9 2 2v18c0 1.1-.9 2-2 2H3c-1.1 0-2-.9-2-2V3c0-1.1.9-2 2-2h32z" fill="#fff" /><g transform="translate(.045 .043)" stroke-width="1"><path d="M4.016 15.783c-.43 0-.788-.061-1.072-.184-.284-.123-.499-.283-.646-.481a1.119 1.119 0 01-.232-.632c0-.035.014-.066.042-.093a.136.136 0 01.1-.042h.813c.06 0 .106.011.139.033a.345.345 0 01.087.084.683.683 0 00.393.333c.103.037.228.055.375.055.25 0 .438-.039.565-.116.127-.077.19-.183.19-.316a.303.303 0 00-.103-.239.97.97 0 00-.332-.164 6.044 6.044 0 00-.61-.152 3.687 3.687 0 01-.836-.268 1.275 1.275 0 01-.526-.432c-.121-.178-.181-.401-.181-.668 0-.263.074-.497.223-.704.148-.207.356-.368.623-.484.267-.116.583-.174.949-.174a2.4 2.4 0 01.784.117c.226.077.416.181.571.31.155.129.272.266.352.41.08.144.121.285.126.422a.144.144 0 01-.035.094c-.024.028-.057.041-.1.041h-.852a.276.276 0 01-.123-.025.224.224 0 01-.09-.084.445.445 0 00-.203-.249.788.788 0 00-.429-.106c-.189 0-.337.034-.442.1-.106.067-.158.169-.158.307 0 .086.029.162.087.226a.69.69 0 00.29.168c.135.047.322.097.558.148.392.074.708.165.949.274.241.11.418.252.532.427.114.175.171.392.171.655 0 .293-.084.544-.252.755a1.597 1.597 0 01-.687.487 2.75 2.75 0 01-1.01.171z" fill="#00358e" stroke-width="1"/><path d="M6.772 15.718a.15.15 0 01-.116-.048.16.16 0 01-.045-.113v-4.196c0-.047.015-.086.045-.116a.158.158 0 01.116-.045h1.807c.357 0 .668.055.933.164.265.11.471.275.62.494.148.219.222.497.222.833 0 .331-.074.605-.222.819a1.31 1.31 0 01-.62.478 2.562 2.562 0 01-.933.154h-.768v1.414a.155.155 0 01-.048.113.162.162 0 01-.119.048h-.871zm1.02-2.466h.755a.652.652 0 00.442-.142c.11-.095.164-.238.164-.432a.613.613 0 00-.142-.413c-.095-.112-.25-.168-.465-.168h-.755v1.155z" fill="#00358e" stroke-width="1"/><path d="M11.135 15.718a.15.15 0 01-.116-.048.16.16 0 01-.045-.113v-4.196c0-.047.015-.086.045-.116a.158.158 0 01.116-.045h1.755c.559 0 .998.128 1.317.383.318.256.478.619.478 1.088 0 .306-.073.564-.22.775-.146.211-.34.37-.581.477l.884 1.588a.158.158 0 01.019.071.127.127 0 01-.042.093.129.129 0 01-.093.042h-.859c-.082 0-.142-.02-.181-.061a.468.468 0 01-.084-.113l-.736-1.42h-.658v1.433a.155.155 0 01-.048.113.162.162 0 01-.119.048h-.833zm1-2.511h.742c.202 0 .354-.049.455-.149a.534.534 0 00.152-.4.571.571 0 00-.145-.407c-.097-.103-.251-.154-.461-.154h-.742v1.11z" fill="#00358e" stroke-width="1"/><path d="M15.175 15.718a.127.127 0 01-.093-.042.129.129 0 01-.042-.093c0-.022.002-.041.007-.058l1.517-4.143a.246.246 0 01.252-.181h.955a.246.246 0 01.252.181l1.51 4.143a.127.127 0 01-.029.151.136.136 0 01-.1.042h-.794c-.065 0-.113-.016-.145-.048a.231.231 0 01-.061-.087l-.252-.658h-1.723l-.245.658a.257.257 0 01-.058.087c-.03.032-.082.048-.155.048h-.794zm1.517-1.723h1.201l-.6-1.704-.6 1.704z" fill="#00358e" stroke-width="1"/><path d="M20.862 15.718a.155.155 0 01-.113-.048.155.155 0 01-.048-.113v-1.388l-1.498-2.763-.013-.035a.103.103 0 01-.006-.035c0-.035.014-.066.042-.093a.136.136 0 01.1-.042h.807c.065 0 .115.016.152.048a.3.3 0 01.074.087l.923 1.665.929-1.665a.316.316 0 01.074-.087c.037-.033.087-.048.152-.048h.807c.039 0 .071.014.097.042a.132.132 0 01.039.093.19.19 0 01-.003.035c-.002.011-.006.023-.01.035l-1.498 2.763v1.388a.155.155 0 01-.048.113.162.162 0 01-.119.048h-.839z" fill="#00358e" stroke-width="1"/><g transform="translate(.045 .043)" stroke-width="1"><path d="M24.096 15.718a.15.15 0 01-.116-.048.16.16 0 01-.045-.113v-4.196c0-.047.015-.086.045-.116a.158.158 0 01.116-.045h1.807c.357 0 .668.055.933.164.265.11.471.275.62.494.148.219.222.497.222.833 0 .331-.074.605-.222.819a1.31 1.31 0 01-.62.478 2.562 2.562 0 01-.933.154h-.768v1.414a.155.155 0 01-.048.113.162.162 0 01-.119.048h-.871zm1.019-2.466h.755a.652.652 0 00.442-.142c.11-.095.164-.238.164-.432a.613.613 0 00-.142-.413c-.095-.112-.25-.168-.465-.168h-.755v1.155z" fill="#00a9ce" stroke-width="1"/><path d="M27.729 15.718a.127.127 0 01-.093-.042.129.129 0 01-.042-.093c0-.022.002-.041.007-.058l1.517-4.143a.246.246 0 01.252-.181h.955a.246.246 0 01.252.181l1.51 4.143a.127.127 0 01-.029.151.136.136 0 01-.1.042h-.794c-.065 0-.113-.016-.145-.048a.231.231 0 01-.061-.087l-.252-.658h-1.723l-.245.658a.257.257 0 01-.058.087c-.03.032-.082.048-.155.048h-.794zm1.517-1.723h1.201l-.6-1.704-.6 1.704z" fill="#00a9ce" stroke-width="1"/><path d="M33.416 15.718a.155.155 0 01-.113-.048.155.155 0 01-.048-.113v-1.388l-1.498-2.763-.013-.035a.103.103 0 01-.006-.035c0-.035.014-.066.042-.093a.136.136 0 01.1-.042h.807c.065 0 .115.016.152.048a.3.3 0 01.074.087l.923 1.665.929-1.665a.316.316 0 01.074-.087c.037-.033.087-.048.152-.048h.807c.039 0 .071.014.097.042a.132.132 0 01.039.093.19.19 0 01-.003.035c-.002.011-.006.023-.01.035l-1.498 2.763v1.388a.155.155 0 01-.048.113.162.162 0 01-.119.048h-.839z" fill="#00a9ce" stroke-width="1"/></g><g transform="translate(.045 .043)" stroke-width="1"><path d="M8.947 18.757a.63.63 0 01-.317-.074.476.476 0 01-.195-.205.712.712 0 01-.073-.303 13.516 13.516 0 01-.002-.209c0-.074 0-.143.002-.208a.72.72 0 01.073-.304.488.488 0 01.196-.204.631.631 0 01.316-.074.67.67 0 01.259.045.516.516 0 01.277.247.295.295 0 01.035.114c.001.013-.002.024-.011.032a.05.05 0 01-.035.012h-.048c-.013 0-.023-.003-.029-.01a.103.103 0 01-.018-.034.388.388 0 00-.212-.233.514.514 0 00-.218-.041.464.464 0 00-.317.106c-.081.071-.125.189-.131.355a6.503 6.503 0 000 .395c.006.164.049.281.131.353a.462.462 0 00.317.108.534.534 0 00.233-.049.37.37 0 00.162-.151.508.508 0 00.059-.26v-.112h-.382a.047.047 0 01-.035-.014.052.052 0 01-.013-.036v-.031c0-.016.004-.029.013-.037a.046.046 0 01.035-.013h.47c.016 0 .029.004.037.013.009.009.013.021.013.037v.193c0 .117-.023.22-.069.309a.496.496 0 01-.202.209.647.647 0 01-.322.075z" fill="#00358e" stroke-width="1"/><path d="M10.035 18.735a.05.05 0 01-.035-.013.046.046 0 01-.013-.035V17.25c0-.016.004-.029.013-.037a.05.05 0 01.035-.013h.856c.016 0 .028.004.037.013.009.009.013.021.013.037v.033a.046.046 0 01-.013.035c-.009.009-.021.013-.037.013h-.766v.56h.718c.016 0 .029.004.037.013.009.009.013.021.013.037v.033a.046.046 0 01-.013.035c-.009.009-.021.013-.037.013h-.718v.581h.783c.016 0 .029.004.037.013.009.009.013.021.013.037v.033a.046.046 0 01-.013.035c-.009.009-.021.013-.037.013h-.873z" fill="#00358e" stroke-width="1"/><path d="M11.857 18.757a.723.723 0 01-.302-.057.473.473 0 01-.19-.147.345.345 0 01-.07-.191c0-.012.004-.022.013-.031a.044.044 0 01.033-.013h.044c.015 0 .026.004.034.013a.052.052 0 01.014.031.261.261 0 00.055.122c.031.04.076.074.136.101a.57.57 0 00.233.041c.143 0 .248-.026.314-.078a.253.253 0 00.099-.21.194.194 0 00-.052-.142.44.44 0 00-.157-.096c-.07-.029-.16-.06-.27-.095a1.658 1.658 0 01-.257-.104.374.374 0 01-.148-.13.368.368 0 01-.047-.198c0-.075.02-.141.059-.201a.398.398 0 01.172-.141.648.648 0 01.275-.053.67.67 0 01.226.035.479.479 0 01.16.093c.042.039.075.08.097.125a.313.313 0 01.035.13c0 .01-.004.02-.011.03-.007.01-.019.014-.035.014h-.044a.06.06 0 01-.027-.009c-.011-.006-.018-.018-.021-.035a.254.254 0 00-.115-.181.448.448 0 00-.264-.071.497.497 0 00-.266.064c-.069.042-.103.109-.103.2 0 .059.015.106.046.144a.38.38 0 00.145.099c.066.028.151.06.255.093.11.035.2.07.272.105a.406.406 0 01.16.128c.035.05.053.116.053.196a.376.376 0 01-.067.227.423.423 0 01-.19.143.787.787 0 01-.294.049z" fill="#00358e" stroke-width="1"/><path d="M12.882 18.735a.05.05 0 01-.035-.013.046.046 0 01-.013-.035V17.25c0-.016.004-.029.013-.037a.05.05 0 01.035-.013h.533c.102 0 .191.017.267.051a.39.39 0 01.175.153.464.464 0 01.063.25.464.464 0 01-.063.25.393.393 0 01-.175.152.627.627 0 01-.267.052h-.443v.579a.046.046 0 01-.013.035c-.009.009-.021.013-.037.013zm.09-.759h.432c.127 0 .222-.028.284-.083.062-.056.093-.135.093-.239 0-.104-.031-.184-.093-.239-.062-.056-.157-.083-.284-.083h-.432v.645z" fill="#00358e" stroke-width="1"/><path d="M14.37 18.735a.05.05 0 01-.035-.013.046.046 0 01-.013-.035V17.25c0-.016.004-.029.013-.037a.05.05 0 01.035-.013h.511c.154 0 .276.036.368.11.091.073.137.184.137.334a.422.422 0 01-.088.281.444.444 0 01-.244.143l.353.601a.064.064 0 01.007.024.042.042 0 01-.013.031.042.042 0 01-.031.013h-.026c-.023 0-.041-.006-.053-.019a.238.238 0 01-.031-.04l-.349-.59h-.452v.601a.046.046 0 01-.013.035c-.009.009-.021.013-.037.013h-.04zm.09-.781h.41c.127 0 .222-.026.284-.078.062-.052.093-.13.093-.234 0-.104-.031-.182-.093-.234-.062-.052-.157-.078-.284-.078h-.41v.623z" fill="#00358e" stroke-width="1"/><path d="M15.884 18.735a.05.05 0 01-.035-.013.046.046 0 01-.013-.035V17.25c0-.016.004-.029.013-.037a.05.05 0 01.035-.013h.856c.016 0 .028.004.037.013.009.009.013.021.013.037v.033a.046.046 0 01-.013.035c-.009.009-.021.013-.037.013h-.766v.56h.718c.016 0 .029.004.037.013.009.009.013.021.013.037v.033a.046.046 0 01-.013.035c-.009.009-.021.013-.037.013h-.718v.581h.783c.016 0 .029.004.037.013.009.009.013.021.013.037v.033a.046.046 0 01-.013.035c-.009.009-.021.013-.037.013h-.873z" fill="#00358e" stroke-width="1"/><path d="M17.293 18.735a.05.05 0 01-.035-.013.046.046 0 01-.013-.035v-1.44c0-.015.004-.026.013-.035a.046.046 0 01.035-.013h.042c.015 0 .026.004.035.013.009.009.013.02.013.035v1.44a.046.046 0 01-.013.035.046.046 0 01-.035.013z" fill="#00358e" stroke-width="1"/><path d="M17.953 18.735a.05.05 0 01-.035-.013.046.046 0 01-.013-.035V17.25c0-.016.004-.029.013-.037a.05.05 0 01.035-.013h.467c.155 0 .277.023.364.068.088.045.15.112.188.201a.853.853 0 01.058.324l.002.175c0 .051 0 .109-.002.174a.943.943 0 01-.059.334.375.375 0 01-.184.196.808.808 0 01-.356.065h-.478zm.09-.131h.377c.117 0 .21-.016.278-.047a.286.286 0 00.147-.151.722.722 0 00.047-.276l.002-.115v-.098c0-.032 0-.07-.002-.114-.003-.161-.04-.28-.112-.357-.072-.077-.195-.115-.371-.115h-.366z" fill="#00358e" stroke-width="1"/><path d="M20.225 18.735a.05.05 0 01-.035-.013.046.046 0 01-.013-.035V17.25c0-.016.004-.029.013-.037a.05.05 0 01.035-.013h.573c.102 0 .186.018.251.055a.356.356 0 01.144.144.411.411 0 01.046.194c0 .063-.01.117-.03.161a.33.33 0 01-.075.109.402.402 0 01-.089.064c.058.029.11.076.156.14a.447.447 0 01.016.445.4.4 0 01-.154.162.47.47 0 01-.251.063h-.588zm.09-.869h.454c.108 0 .191-.024.247-.072a.251.251 0 00.084-.202c0-.087-.028-.151-.084-.195a.395.395 0 00-.247-.066h-.454zm0 .738h.476a.347.347 0 00.251-.086.289.289 0 00.089-.217.288.288 0 00-.089-.218.351.351 0 00-.251-.085h-.476z" fill="#00358e" stroke-width="1"/><path d="M21.767 18.735a.05.05 0 01-.035-.013.046.046 0 01-.013-.035V17.25c0-.016.004-.029.013-.037a.05.05 0 01.035-.013h.856c.016 0 .028.004.037.013.009.009.013.021.013.037v.033a.046.046 0 01-.013.035c-.009.009-.021.013-.037.013h-.766v.56h.718c.016 0 .029.004.037.013.009.009.013.021.013.037v.033a.046.046 0 01-.013.035c-.009.009-.021.013-.037.013h-.718v.581h.783c.016 0 .029.004.037.013.009.009.013.021.013.037v.033a.046.046 0 01-.013.035c-.009.009-.021.013-.037.013h-.873z" fill="#00358e" stroke-width="1"/><path d="M23.512 18.735a.05.05 0 01-.035-.013.046.046 0 01-.013-.035v-1.356h-.435a.05.05 0 01-.035-.013.046.046 0 01-.013-.035v-.033c0-.016.004-.029.013-.037a.046.046 0 01.035-.013h1.005c.016 0 .029.004.037.013.009.009.013.021.013.037v.033a.046.046 0 01-.013.035c-.009.009-.021.013-.037.013h-.432v1.356a.046.046 0 01-.013.035c-.009.009-.021.013-.037.013z" fill="#00358e" stroke-width="1"/><path d="M24.186 18.735a.046.046 0 01-.031-.013.042.042 0 01-.013-.031c0-.007.001-.015.004-.024l.555-1.424a.07.07 0 01.023-.033.069.069 0 01.041-.011h.075c.018 0 .031.004.041.011a.07.07 0 01.023.033l.555 1.424a.075.075 0 01.004.024.042.042 0 01-.013.031.042.042 0 01-.031.013h-.044c-.015 0-.026-.004-.033-.012a.076.076 0 01-.015-.021l-.136-.351h-.777l-.136.351c-.001.006-.006.013-.014.021-.008.008-.019.012-.034.012zm.281-.516h.672l-.336-.865z" fill="#00358e" stroke-width="1"/><path d="M25.88 18.735a.05.05 0 01-.035-.013.046.046 0 01-.013-.035v-1.44c0-.015.004-.026.013-.035a.046.046 0 01.035-.013h.042c.015 0 .026.004.035.013.009.009.013.02.013.035v1.356h.757c.016 0 .028.004.037.013.009.009.013.021.013.037v.033a.046.046 0 01-.013.035c-.009.009-.021.013-.037.013h-.847z" fill="#00358e" stroke-width="1"/><path d="M27.192 18.735a.05.05 0 01-.035-.013.046.046 0 01-.013-.035V17.25c0-.016.004-.029.013-.037a.05.05 0 01.035-.013h.856c.016 0 .028.004.037.013.009.009.013.021.013.037v.033a.046.046 0 01-.013.035c-.009.009-.021.013-.037.013h-.766v.56H28c.016 0 .029.004.037.013.009.009.013.021.013.037v.033a.046.046 0 01-.013.035c-.009.009-.021.013-.037.013h-.718v.581h.783c.016 0 .029.004.037.013.009.009.013.021.013.037v.033a.046.046 0 01-.013.035c-.009.009-.021.013-.037.013h-.873z" fill="#00358e" stroke-width="1"/><path d="M28.601 18.735a.05.05 0 01-.035-.013.046.046 0 01-.013-.035V17.25c0-.016.004-.029.013-.037a.05.05 0 01.035-.013h.046c.015 0 .026.004.033.011.007.007.012.012.013.015l.81 1.238v-1.213c0-.016.004-.029.013-.037a.046.046 0 01.035-.013h.04c.016 0 .028.004.037.013.009.009.013.021.013.037v1.435a.048.048 0 01-.013.036.047.047 0 01-.035.014h-.048c-.015 0-.025-.004-.032-.011l-.014-.015-.808-1.233v1.211a.046.046 0 01-.013.035c-.009.009-.021.013-.037.013h-.04z" fill="#00358e" stroke-width="1"/></g><g transform="translate(.045 .043)" stroke-width="1"><rect x="12.185" y="5.243" width=".593" height="3.852" rx=".296" ry=".296" fill="url(#linearGradient25-6)" stroke-width="1"/><rect x="13.37" y="5.907" width=".593" height="3.556" rx=".296" ry=".296" fill="url(#pi-Naamloos_verloop_9-2-3)" stroke-width="1"/><rect x="14.556" y="6.41" width=".593" height="3.259" rx=".296" ry=".296" fill="url(#pi-Naamloos_verloop_9-3-5)" stroke-width="1"/><rect x="15.741" y="6.778" width=".593" height="2.963" rx=".296" ry=".296" fill="url(#pi-Naamloos_verloop_9-4-6)" stroke-width="1"/><rect x="16.926" y="7.009" width=".593" height="2.667" rx=".296" ry=".296" fill="url(#pi-Naamloos_verloop_9-5-2)" stroke-width="1"/><rect x="18.111" y="7.121" width=".593" height="2.37" rx=".296" ry=".296" fill="url(#pi-Naamloos_verloop_9-6-9)" stroke-width="1"/><rect x="19.296" y="7.121" width=".593" height="2.074" rx=".296" ry=".296" fill="url(#pi-Naamloos_verloop_9-7-1)" stroke-width="1"/><rect x="20.481" y="7.009" width=".593" height="1.778" rx=".296" ry=".296" fill="url(#pi-Naamloos_verloop_9-8-2)" stroke-width="1"/><rect x="21.667" y="6.778" width=".593" height="1.481" rx=".296" ry=".296" fill="url(#pi-Naamloos_verloop_9-9-7)" stroke-width="1"/><rect x="22.852" y="6.41" width=".593" height="1.185" rx=".296" ry=".296" fill="url(#pi-Naamloos_verloop_9-10-0)" stroke-width="1"/><rect x="24.037" y="5.907" width=".593" height=".889" rx=".296" ry=".296" fill="url(#pi-Naamloos_verloop_9-11-9)" stroke-width="1"/><rect x="25.222" y="5.243" width=".593" height=".593" rx=".296" ry=".296" fill="url(#pi-Naamloos_verloop_9-12-3)" stroke-width="1"/></g></g><defs><linearGradient id="pi-Naamloos_verloop_9" data-name="Naamloos verloop 9" x1="12.217" y1="7.169" x2="25.775" y2="7.169" gradientUnits="userSpaceOnUse"><stop offset="0" stop-color="#00358e" id="pi-stop1"/><stop offset="1" stop-color="#00a9ce" id="pi-stop2"/></linearGradient><linearGradient id="pi-Naamloos_verloop_9-2" data-name="Naamloos verloop 9" x1="12.217" y1="7.684" x2="25.775" y2="7.684" xlink:href="#pi-Naamloos_verloop_9"/><linearGradient id="pi-Naamloos_verloop_9-3" data-name="Naamloos verloop 9" x1="12.217" y1="8.04" x2="25.775" y2="8.04" xlink:href="#pi-Naamloos_verloop_9"/><linearGradient id="pi-Naamloos_verloop_9-4" data-name="Naamloos verloop 9" x1="12.217" y1="8.259" x2="25.775" y2="8.259" xlink:href="#pi-Naamloos_verloop_9"/><linearGradient id="pi-Naamloos_verloop_9-5" data-name="Naamloos verloop 9" x1="12.217" y1="8.342" x2="25.775" y2="8.342" xlink:href="#pi-Naamloos_verloop_9"/><linearGradient id="pi-Naamloos_verloop_9-6" data-name="Naamloos verloop 9" x1="12.217" y1="8.307" x2="25.775" y2="8.307" xlink:href="#pi-Naamloos_verloop_9"/><linearGradient id="pi-Naamloos_verloop_9-7" data-name="Naamloos verloop 9" x1="12.217" y1="8.158" x2="25.775" y2="8.158" xlink:href="#pi-Naamloos_verloop_9"/><linearGradient id="pi-Naamloos_verloop_9-8" data-name="Naamloos verloop 9" x1="12.217" y1="7.898" x2="25.775" y2="7.898" xlink:href="#pi-Naamloos_verloop_9"/><linearGradient id="pi-Naamloos_verloop_9-9" data-name="Naamloos verloop 9" x1="12.217" y1="7.518" x2="25.775" y2="7.518" xlink:href="#pi-Naamloos_verloop_9"/><linearGradient id="pi-Naamloos_verloop_9-10" data-name="Naamloos verloop 9" x1="12.217" y1="7.003" x2="25.775" y2="7.003" xlink:href="#pi-Naamloos_verloop_9"/><linearGradient id="pi-Naamloos_verloop_9-11" data-name="Naamloos verloop 9" x1="12.217" y1="6.351" x2="25.775" y2="6.351" xlink:href="#pi-Naamloos_verloop_9"/><linearGradient id="pi-Naamloos_verloop_9-12" data-name="Naamloos verloop 9" x1="12.217" y1="5.539" x2="25.775" y2="5.539" xlink:href="#pi-Naamloos_verloop_9"/><linearGradient id="pi-Naamloos_verloop_9-2-3" data-name="Naamloos verloop 9" x1="12.217" y1="7.684" x2="25.775" y2="7.684" xlink:href="#pi-Naamloos_verloop_9"/><linearGradient id="pi-Naamloos_verloop_9-3-5" data-name="Naamloos verloop 9" x1="12.217" y1="8.04" x2="25.775" y2="8.04" xlink:href="#pi-Naamloos_verloop_9"/><linearGradient id="pi-Naamloos_verloop_9-4-6" data-name="Naamloos verloop 9" x1="12.217" y1="8.259" x2="25.775" y2="8.259" xlink:href="#pi-Naamloos_verloop_9"/><linearGradient id="pi-Naamloos_verloop_9-5-2" data-name="Naamloos verloop 9" x1="12.217" y1="8.342" x2="25.775" y2="8.342" xlink:href="#pi-Naamloos_verloop_9"/><linearGradient id="pi-Naamloos_verloop_9-6-9" data-name="Naamloos verloop 9" x1="12.217" y1="8.307" x2="25.775" y2="8.307" xlink:href="#pi-Naamloos_verloop_9"/><linearGradient id="pi-Naamloos_verloop_9-7-1" data-name="Naamloos verloop 9" x1="12.217" y1="8.158" x2="25.775" y2="8.158" xlink:href="#pi-Naamloos_verloop_9"/><linearGradient id="pi-Naamloos_verloop_9-8-2" data-name="Naamloos verloop 9" x1="12.217" y1="7.898" x2="25.775" y2="7.898" xlink:href="#pi-Naamloos_verloop_9"/><linearGradient id="pi-Naamloos_verloop_9-9-7" data-name="Naamloos verloop 9" x1="12.217" y1="7.518" x2="25.775" y2="7.518" xlink:href="#pi-Naamloos_verloop_9"/><linearGradient id="pi-Naamloos_verloop_9-10-0" data-name="Naamloos verloop 9" x1="12.217" y1="7.003" x2="25.775" y2="7.003" xlink:href="#pi-Naamloos_verloop_9"/><linearGradient id="pi-Naamloos_verloop_9-11-9" data-name="Naamloos verloop 9" x1="12.217" y1="6.351" x2="25.775" y2="6.351" xlink:href="#pi-Naamloos_verloop_9"/><linearGradient id="pi-Naamloos_verloop_9-12-3" data-name="Naamloos verloop 9" x1="12.217" y1="5.539" x2="25.775" y2="5.539" xlink:href="#pi-Naamloos_verloop_9"/><linearGradient xlink:href="#pi-Naamloos_verloop_9" id="pi-linearGradient25-6" gradientUnits="userSpaceOnUse" x1="12.217" y1="7.169" x2="25.775" y2="7.169"/></defs></svg>